<svg width="109" height="40" viewBox="0 0 109 40" fill="none" xmlns="http://www.w3.org/2000/svg">
<rect width="109" height="40" rx="3" fill="#005AE2"/>
<path d="M52.166 19.448V20.12C52.166 21.5813 51.6647 22.7973 50.662 23.768C49.6593 24.728 48.3313 25.208 46.678 25.208C44.9713 25.208 43.558 24.648 42.438 23.528C41.3287 22.3973 40.774 21.0213 40.774 19.4C40.774 17.7787 41.3287 16.408 42.438 15.288C43.558 14.1573 44.9607 13.592 46.646 13.592C47.6807 13.592 48.63 13.8427 49.494 14.344C50.358 14.8347 51.0247 15.4853 51.494 16.296L50.214 17.048C49.894 16.44 49.4087 15.9547 48.758 15.592C48.118 15.2187 47.4087 15.032 46.63 15.032C45.35 15.032 44.2993 15.4533 43.478 16.296C42.6567 17.128 42.246 18.1627 42.246 19.4C42.246 20.6373 42.6567 21.672 43.478 22.504C44.31 23.336 45.382 23.752 46.694 23.752C47.814 23.752 48.7207 23.48 49.414 22.936C50.1073 22.3813 50.5287 21.6667 50.678 20.792H46.566V19.448H52.166ZM60.5834 23.992C59.7621 24.8027 58.7647 25.208 57.5914 25.208C56.4181 25.208 55.4207 24.8027 54.5994 23.992C53.7887 23.1813 53.3834 22.184 53.3834 21C53.3834 19.816 53.7887 18.8187 54.5994 18.008C55.4207 17.1973 56.4181 16.792 57.5914 16.792C58.7647 16.792 59.7621 17.1973 60.5834 18.008C61.4047 18.8187 61.8154 19.816 61.8154 21C61.8154 22.184 61.4047 23.1813 60.5834 23.992ZM57.5914 23.848C58.3914 23.848 59.0634 23.576 59.6074 23.032C60.1514 22.488 60.4234 21.8107 60.4234 21C60.4234 20.1893 60.1514 19.512 59.6074 18.968C59.0634 18.424 58.3914 18.152 57.5914 18.152C56.8021 18.152 56.1354 18.424 55.5914 18.968C55.0474 19.512 54.7754 20.1893 54.7754 21C54.7754 21.8107 55.0474 22.488 55.5914 23.032C56.1354 23.576 56.8021 23.848 57.5914 23.848ZM70.2084 23.992C69.3871 24.8027 68.3897 25.208 67.2164 25.208C66.0431 25.208 65.0457 24.8027 64.2244 23.992C63.4137 23.1813 63.0084 22.184 63.0084 21C63.0084 19.816 63.4137 18.8187 64.2244 18.008C65.0457 17.1973 66.0431 16.792 67.2164 16.792C68.3897 16.792 69.3871 17.1973 70.2084 18.008C71.0297 18.8187 71.4404 19.816 71.4404 21C71.4404 22.184 71.0297 23.1813 70.2084 23.992ZM67.2164 23.848C68.0164 23.848 68.6884 23.576 69.2324 23.032C69.7764 22.488 70.0484 21.8107 70.0484 21C70.0484 20.1893 69.7764 19.512 69.2324 18.968C68.6884 18.424 68.0164 18.152 67.2164 18.152C66.4271 18.152 65.7604 18.424 65.2164 18.968C64.6724 19.512 64.4004 20.1893 64.4004 21C64.4004 21.8107 64.6724 22.488 65.2164 23.032C65.7604 23.576 66.4271 23.848 67.2164 23.848ZM79.7214 17H81.0974V24.664C81.0974 25.848 80.6974 26.7653 79.8974 27.416C79.0974 28.0773 78.1374 28.408 77.0174 28.408C76.1214 28.408 75.3481 28.2373 74.6974 27.896C74.0467 27.5653 73.5561 27.0853 73.2254 26.456L74.4414 25.768C74.8787 26.664 75.7481 27.112 77.0494 27.112C77.8814 27.112 78.5321 26.8933 79.0014 26.456C79.4814 26.0187 79.7214 25.4213 79.7214 24.664V23.528C79.0174 24.5947 78.0147 25.128 76.7134 25.128C75.5721 25.128 74.6067 24.7227 73.8174 23.912C73.0281 23.1013 72.6334 22.1147 72.6334 20.952C72.6334 19.7893 73.0281 18.808 73.8174 18.008C74.6067 17.1973 75.5721 16.792 76.7134 16.792C78.0254 16.792 79.0281 17.32 79.7214 18.376V17ZM74.8414 22.984C75.3854 23.528 76.0627 23.8 76.8734 23.8C77.6841 23.8 78.3614 23.528 78.9054 22.984C79.4494 22.44 79.7214 21.7627 79.7214 20.952C79.7214 20.152 79.4494 19.48 78.9054 18.936C78.3614 18.392 77.6841 18.12 76.8734 18.12C76.0627 18.12 75.3854 18.392 74.8414 18.936C74.2974 19.48 74.0254 20.152 74.0254 20.952C74.0254 21.7627 74.2974 22.44 74.8414 22.984ZM83.2064 25V13.32H84.5984V25H83.2064ZM87.698 21.64C87.8367 22.3547 88.162 22.9093 88.674 23.304C89.1967 23.6987 89.8367 23.896 90.594 23.896C91.65 23.896 92.418 23.5067 92.898 22.728L94.082 23.4C93.3033 24.6053 92.13 25.208 90.562 25.208C89.2927 25.208 88.258 24.8133 87.458 24.024C86.6687 23.224 86.274 22.216 86.274 21C86.274 19.7947 86.6633 18.792 87.442 17.992C88.2207 17.192 89.2287 16.792 90.466 16.792C91.6393 16.792 92.594 17.208 93.33 18.04C94.0767 18.8613 94.45 19.8533 94.45 21.016C94.45 21.2187 94.434 21.4267 94.402 21.64H87.698ZM90.466 18.104C89.7193 18.104 89.1007 18.3173 88.61 18.744C88.1193 19.16 87.8153 19.72 87.698 20.424H93.042C92.9247 19.6667 92.626 19.0907 92.146 18.696C91.666 18.3013 91.106 18.104 90.466 18.104Z" fill="white"/>
<path d="M35.5556 20.7111C35.5556 20.0778 35.4444 19.3389 35.3333 18.8111H26V22.5055H31.3333C31.1111 23.6667 30.4444 24.6167 29.3333 25.3555V27.7833H32.6667C34.5556 26.0944 35.5556 23.5611 35.5556 20.7111Z" fill="#4285F4"/>
<path d="M26.0002 30C28.6669 30 31.0002 29.1556 32.6669 27.6778L29.3335 25.3556C28.4447 25.8834 27.3335 26.3056 26.0002 26.3056C23.4447 26.3056 21.2224 24.6167 20.4447 22.4H17.1113V24.7222C18.6669 27.8889 22.1113 30 26.0002 30Z" fill="#34A853"/>
<path d="M20.4444 22.2944C20.2222 21.7667 20.1111 21.1333 20.1111 20.5C20.1111 19.8667 20.2222 19.2333 20.4444 18.7055V16.2778H17.1111C16.4444 17.5444 16 19.0222 16 20.5C16 21.9778 16.3333 23.4555 17.1111 24.7222L20.4444 22.2944Z" fill="#FBBC05"/>
<path d="M26.0002 14.8C27.4447 14.8 28.778 15.3278 29.778 16.1722L32.6669 13.4278C31.0002 11.95 28.6669 11 26.0002 11C22.1113 11 18.6669 13.1111 17.1113 16.2778L20.4447 18.7056C21.2224 16.4889 23.4447 14.8 26.0002 14.8Z" fill="#EA4335"/>
</svg>
