<svg width="99" height="19" viewBox="0 0 99 19" fill="none" xmlns="http://www.w3.org/2000/svg">
<path d="M7.38243 18.336C4.04643 18.336 1.71843 16.752 0.782426 14.184L3.61443 12.528C4.26243 14.232 5.55843 15.096 7.47843 15.096C9.32643 15.096 10.1664 14.352 10.1664 13.32C10.1664 12.72 9.90243 12.264 9.37443 11.952C8.84643 11.616 7.91043 11.256 6.54243 10.872C5.03043 10.416 4.11843 10.056 3.06243 9.312C2.03043 8.544 1.47843 7.392 1.47843 5.856C1.47843 4.344 2.00643 3.12 3.08643 2.232C4.16643 1.32 5.48643 0.863999 6.99843 0.863999C9.71043 0.863999 11.8464 2.256 12.9984 4.632L10.2144 6.24C9.54243 4.8 8.46243 4.08 6.99843 4.08C5.63043 4.08 4.79043 4.776 4.79043 5.76C4.79043 6.288 5.00643 6.72 5.43843 7.056C5.89443 7.368 6.73443 7.728 7.98243 8.112L9.13443 8.496C9.39843 8.568 9.75843 8.712 10.2144 8.904C10.6704 9.072 11.0304 9.24 11.2704 9.408C11.7744 9.72 12.5424 10.32 12.8544 10.896C13.2144 11.472 13.4784 12.312 13.4784 13.272C13.4784 14.832 12.9024 16.056 11.7744 16.968C10.6464 17.88 9.18243 18.336 7.38243 18.336ZM23.4894 18.336C20.9694 18.336 18.8814 17.496 17.2254 15.816C15.5694 14.136 14.7534 12.072 14.7534 9.6C14.7534 7.128 15.5694 5.04 17.2254 3.384C18.8814 1.704 20.9694 0.863999 23.4894 0.863999C26.5374 0.863999 29.2734 2.4 30.7134 4.824L27.8574 6.48C27.0174 4.968 25.4094 4.08 23.4894 4.08C21.8574 4.08 20.5374 4.584 19.5294 5.616C18.5454 6.648 18.0414 7.968 18.0414 9.6C18.0414 11.208 18.5454 12.528 19.5294 13.56C20.5374 14.592 21.8574 15.096 23.4894 15.096C25.4094 15.096 27.0654 14.184 27.8574 12.72L30.7134 14.376C29.2734 16.8 26.5614 18.336 23.4894 18.336ZM32.748 18V1.2H36.06V18H32.748ZM44.6481 18.336C41.3121 18.336 38.9841 16.752 38.0481 14.184L40.8801 12.528C41.5281 14.232 42.8241 15.096 44.7441 15.096C46.5921 15.096 47.4321 14.352 47.4321 13.32C47.4321 12.72 47.1681 12.264 46.6401 11.952C46.1121 11.616 45.1761 11.256 43.8081 10.872C42.2961 10.416 41.3841 10.056 40.3281 9.312C39.2961 8.544 38.7441 7.392 38.7441 5.856C38.7441 4.344 39.2721 3.12 40.3521 2.232C41.4321 1.32 42.7521 0.863999 44.2641 0.863999C46.9761 0.863999 49.1121 2.256 50.2641 4.632L47.4801 6.24C46.8081 4.8 45.7281 4.08 44.2641 4.08C42.8961 4.08 42.0561 4.776 42.0561 5.76C42.0561 6.288 42.2721 6.72 42.7041 7.056C43.1601 7.368 44.0001 7.728 45.2481 8.112L46.4001 8.496C46.6641 8.568 47.0241 8.712 47.4801 8.904C47.9361 9.072 48.2961 9.24 48.5361 9.408C49.0401 9.72 49.8081 10.32 50.1201 10.896C50.4801 11.472 50.7441 12.312 50.7441 13.272C50.7441 14.832 50.1681 16.056 49.0401 16.968C47.9121 17.88 46.4481 18.336 44.6481 18.336ZM58.1246 18.336C54.7886 18.336 52.4606 16.752 51.5246 14.184L54.3566 12.528C55.0046 14.232 56.3006 15.096 58.2206 15.096C60.0686 15.096 60.9086 14.352 60.9086 13.32C60.9086 12.72 60.6446 12.264 60.1166 11.952C59.5886 11.616 58.6526 11.256 57.2846 10.872C55.7726 10.416 54.8606 10.056 53.8046 9.312C52.7726 8.544 52.2206 7.392 52.2206 5.856C52.2206 4.344 52.7486 3.12 53.8286 2.232C54.9086 1.32 56.2286 0.863999 57.7406 0.863999C60.4526 0.863999 62.5886 2.256 63.7406 4.632L60.9566 6.24C60.2846 4.8 59.2046 4.08 57.7406 4.08C56.3726 4.08 55.5326 4.776 55.5326 5.76C55.5326 6.288 55.7486 6.72 56.1806 7.056C56.6366 7.368 57.4766 7.728 58.7246 8.112L59.8766 8.496C60.1406 8.568 60.5006 8.712 60.9566 8.904C61.4126 9.072 61.7726 9.24 62.0126 9.408C62.5166 9.72 63.2846 10.32 63.5966 10.896C63.9566 11.472 64.2206 12.312 64.2206 13.272C64.2206 14.832 63.6446 16.056 62.5166 16.968C61.3886 17.88 59.9246 18.336 58.1246 18.336ZM80.3996 15.816C78.6956 17.496 76.6316 18.336 74.2076 18.336C71.7836 18.336 69.7196 17.496 68.0156 15.816C66.3356 14.112 65.4956 12.048 65.4956 9.6C65.4956 7.152 66.3356 5.088 68.0156 3.408C69.7196 1.704 71.7836 0.863999 74.2076 0.863999C76.6316 0.863999 78.6956 1.704 80.3996 3.408C82.1036 5.088 82.9436 7.152 82.9436 9.6C82.9436 12.048 82.1036 14.112 80.3996 15.816ZM70.3436 13.56C71.3756 14.592 72.6716 15.096 74.2076 15.096C75.7436 15.096 77.0396 14.592 78.0716 13.56C79.1036 12.528 79.6316 11.208 79.6316 9.6C79.6316 7.992 79.1036 6.672 78.0716 5.64C77.0396 4.608 75.7436 4.08 74.2076 4.08C72.6716 4.08 71.3756 4.608 70.3436 5.64C69.3116 6.672 68.7836 7.992 68.7836 9.6C68.7836 11.208 69.3116 12.528 70.3436 13.56ZM98.0634 18H94.4874L91.1034 12.168H88.5834V18H85.2714V1.2H91.9914C93.5514 1.2 94.8714 1.752 95.9514 2.832C97.0314 3.912 97.5834 5.232 97.5834 6.768C97.5834 8.856 96.2874 10.776 94.3434 11.664L98.0634 18ZM91.9914 4.296H88.5834V9.264H91.9914C93.2394 9.264 94.2714 8.136 94.2714 6.768C94.2714 5.4 93.2394 4.296 91.9914 4.296Z" fill="#0065FE"/>
</svg>
