<svg width="98" height="19" viewBox="0 0 98 19" fill="none" xmlns="http://www.w3.org/2000/svg">
<path d="M7.296 18.336C5.632 18.336 4.232 17.968 3.096 17.232C1.96 16.48 1.16 15.464 0.696 14.184L3.528 12.528C4.184 14.24 5.472 15.096 7.392 15.096C8.32 15.096 9 14.928 9.432 14.592C9.864 14.256 10.08 13.832 10.08 13.32C10.08 12.728 9.816 12.272 9.288 11.952C8.76 11.616 7.816 11.256 6.456 10.872C5.704 10.648 5.064 10.424 4.536 10.2C4.024 9.976 3.504 9.68 2.976 9.312C2.464 8.928 2.072 8.448 1.8 7.872C1.528 7.296 1.392 6.624 1.392 5.856C1.392 4.336 1.928 3.128 3 2.232C4.088 1.32 5.392 0.863999 6.912 0.863999C8.272 0.863999 9.464 1.2 10.488 1.872C11.528 2.528 12.336 3.448 12.912 4.632L10.128 6.24C9.456 4.8 8.384 4.08 6.912 4.08C6.224 4.08 5.68 4.24 5.28 4.56C4.896 4.864 4.704 5.264 4.704 5.76C4.704 6.288 4.92 6.72 5.352 7.056C5.8 7.376 6.648 7.728 7.896 8.112C8.408 8.272 8.792 8.4 9.048 8.496C9.32 8.576 9.68 8.712 10.128 8.904C10.592 9.08 10.944 9.248 11.184 9.408C11.44 9.568 11.728 9.784 12.048 10.056C12.368 10.328 12.608 10.608 12.768 10.896C12.944 11.184 13.088 11.536 13.2 11.952C13.328 12.352 13.392 12.792 13.392 13.272C13.392 14.824 12.824 16.056 11.688 16.968C10.568 17.88 9.104 18.336 7.296 18.336ZM23.403 18.336C20.875 18.336 18.787 17.496 17.139 15.816C15.491 14.136 14.667 12.064 14.667 9.6C14.667 7.12 15.491 5.048 17.139 3.384C18.787 1.704 20.875 0.863999 23.403 0.863999C24.923 0.863999 26.323 1.224 27.603 1.944C28.899 2.648 29.907 3.608 30.627 4.824L27.771 6.48C27.355 5.728 26.763 5.144 25.995 4.728C25.227 4.296 24.363 4.08 23.403 4.08C21.771 4.08 20.451 4.592 19.443 5.616C18.451 6.64 17.955 7.968 17.955 9.6C17.955 11.216 18.451 12.536 19.443 13.56C20.451 14.584 21.771 15.096 23.403 15.096C24.363 15.096 25.227 14.888 25.995 14.472C26.779 14.04 27.371 13.456 27.771 12.72L30.627 14.376C29.907 15.592 28.907 16.56 27.627 17.28C26.347 17.984 24.939 18.336 23.403 18.336ZM32.6616 1.2H35.9736V18H32.6616V1.2ZM44.5616 18.336C42.8976 18.336 41.4976 17.968 40.3616 17.232C39.2256 16.48 38.4256 15.464 37.9616 14.184L40.7936 12.528C41.4496 14.24 42.7376 15.096 44.6576 15.096C45.5856 15.096 46.2656 14.928 46.6976 14.592C47.1296 14.256 47.3456 13.832 47.3456 13.32C47.3456 12.728 47.0816 12.272 46.5536 11.952C46.0256 11.616 45.0816 11.256 43.7216 10.872C42.9696 10.648 42.3296 10.424 41.8016 10.2C41.2896 9.976 40.7696 9.68 40.2416 9.312C39.7296 8.928 39.3376 8.448 39.0656 7.872C38.7936 7.296 38.6576 6.624 38.6576 5.856C38.6576 4.336 39.1936 3.128 40.2656 2.232C41.3536 1.32 42.6576 0.863999 44.1776 0.863999C45.5376 0.863999 46.7296 1.2 47.7536 1.872C48.7936 2.528 49.6016 3.448 50.1776 4.632L47.3936 6.24C46.7216 4.8 45.6496 4.08 44.1776 4.08C43.4896 4.08 42.9456 4.24 42.5456 4.56C42.1616 4.864 41.9696 5.264 41.9696 5.76C41.9696 6.288 42.1856 6.72 42.6176 7.056C43.0656 7.376 43.9136 7.728 45.1616 8.112C45.6736 8.272 46.0576 8.4 46.3136 8.496C46.5856 8.576 46.9456 8.712 47.3936 8.904C47.8576 9.08 48.2096 9.248 48.4496 9.408C48.7056 9.568 48.9936 9.784 49.3136 10.056C49.6336 10.328 49.8736 10.608 50.0336 10.896C50.2096 11.184 50.3536 11.536 50.4656 11.952C50.5936 12.352 50.6576 12.792 50.6576 13.272C50.6576 14.824 50.0896 16.056 48.9536 16.968C47.8336 17.88 46.3696 18.336 44.5616 18.336ZM58.0382 18.336C56.3742 18.336 54.9742 17.968 53.8382 17.232C52.7022 16.48 51.9022 15.464 51.4382 14.184L54.2702 12.528C54.9262 14.24 56.2142 15.096 58.1342 15.096C59.0622 15.096 59.7422 14.928 60.1742 14.592C60.6062 14.256 60.8222 13.832 60.8222 13.32C60.8222 12.728 60.5582 12.272 60.0302 11.952C59.5022 11.616 58.5582 11.256 57.1982 10.872C56.4462 10.648 55.8062 10.424 55.2782 10.2C54.7662 9.976 54.2462 9.68 53.7182 9.312C53.2062 8.928 52.8142 8.448 52.5422 7.872C52.2702 7.296 52.1342 6.624 52.1342 5.856C52.1342 4.336 52.6702 3.128 53.7422 2.232C54.8302 1.32 56.1342 0.863999 57.6542 0.863999C59.0142 0.863999 60.2062 1.2 61.2302 1.872C62.2702 2.528 63.0782 3.448 63.6542 4.632L60.8702 6.24C60.1982 4.8 59.1262 4.08 57.6542 4.08C56.9662 4.08 56.4222 4.24 56.0222 4.56C55.6382 4.864 55.4462 5.264 55.4462 5.76C55.4462 6.288 55.6622 6.72 56.0942 7.056C56.5422 7.376 57.3902 7.728 58.6382 8.112C59.1502 8.272 59.5342 8.4 59.7902 8.496C60.0622 8.576 60.4222 8.712 60.8702 8.904C61.3342 9.08 61.6862 9.248 61.9262 9.408C62.1822 9.568 62.4702 9.784 62.7902 10.056C63.1102 10.328 63.3502 10.608 63.5102 10.896C63.6862 11.184 63.8302 11.536 63.9422 11.952C64.0702 12.352 64.1342 12.792 64.1342 13.272C64.1342 14.824 63.5662 16.056 62.4302 16.968C61.3102 17.88 59.8462 18.336 58.0382 18.336ZM80.3132 15.816C78.6172 17.496 76.5532 18.336 74.1212 18.336C71.6892 18.336 69.6252 17.496 67.9292 15.816C66.2492 14.12 65.4092 12.048 65.4092 9.6C65.4092 7.152 66.2492 5.088 67.9292 3.408C69.6252 1.712 71.6892 0.863999 74.1212 0.863999C76.5532 0.863999 78.6172 1.712 80.3132 3.408C82.0092 5.088 82.8572 7.152 82.8572 9.6C82.8572 12.048 82.0092 14.12 80.3132 15.816ZM70.2572 13.56C71.2972 14.584 72.5852 15.096 74.1212 15.096C75.6572 15.096 76.9452 14.584 77.9852 13.56C79.0252 12.52 79.5452 11.2 79.5452 9.6C79.5452 8 79.0252 6.68 77.9852 5.64C76.9452 4.6 75.6572 4.08 74.1212 4.08C72.5852 4.08 71.2972 4.6 70.2572 5.64C69.2172 6.68 68.6972 8 68.6972 9.6C68.6972 11.2 69.2172 12.52 70.2572 13.56ZM94.401 18L91.017 12.168H88.497V18H85.185V1.2H91.905C93.457 1.2 94.777 1.744 95.865 2.832C96.953 3.92 97.497 5.232 97.497 6.768C97.497 7.808 97.201 8.776 96.609 9.672C96.017 10.552 95.233 11.216 94.257 11.664L97.977 18H94.401ZM88.497 4.296V9.264H91.905C92.529 9.264 93.065 9.024 93.513 8.544C93.961 8.048 94.185 7.456 94.185 6.768C94.185 6.08 93.961 5.496 93.513 5.016C93.065 4.536 92.529 4.296 91.905 4.296H88.497Z" fill="#141414"/>
</svg>
