<svg width="109" height="40" viewBox="0 0 109 40" fill="none" xmlns="http://www.w3.org/2000/svg">
<rect width="109" height="40" rx="3" fill="#005AE2"/>
<path d="M35.2952 20.6619C35.294 19.5084 35.8377 18.4222 36.7613 17.733C36.8426 17.6692 36.8942 17.5748 36.9042 17.4719C36.9142 17.3689 36.8817 17.2664 36.8142 17.1881C36.1176 16.4138 35.1408 15.9506 34.1012 15.9015C32.8241 15.7804 31.6074 16.6583 30.9574 16.6583C30.3075 16.6583 29.2495 15.9015 28.1915 15.9015C26.7668 15.9461 25.4713 16.7401 24.7833 17.9903C23.3323 20.5181 24.413 24.2266 25.7884 26.3003C26.4761 27.2993 27.2998 28.4269 28.388 28.3891C29.4762 28.3512 29.8239 27.7155 31.0859 27.7155C32.348 27.7155 32.7031 28.3891 33.8065 28.3664C34.9098 28.3437 35.6731 27.3447 36.3684 26.3457C36.795 25.7172 37.1427 25.0385 37.4037 24.3249C37.4677 24.1492 37.3938 23.953 37.2299 23.8633C36.0388 23.2416 35.2927 22.0071 35.2952 20.6619Z" fill="white"/>
<path d="M32.3872 13.7869C32.9101 13.0884 33.2163 12.2182 33.2598 11.3074C33.2642 11.1841 33.2179 11.0654 33.1341 10.9855C33.0503 10.9056 32.9384 10.8734 32.8307 10.8982C32.0525 11.0987 31.3498 11.5672 30.8209 12.2382C30.2955 12.9088 29.9814 13.7547 29.9269 14.6454C29.9243 14.7606 29.9659 14.8714 30.0412 14.9497C30.1165 15.028 30.2181 15.0662 30.3202 15.0547C31.1277 14.9418 31.8667 14.4886 32.3872 13.7869Z" fill="white"/>
<path d="M54.4686 25L53.5566 22.488H48.5166L47.6046 25H46.0206L50.1966 13.8H51.8766L56.0526 25H54.4686ZM49.0286 21.096H53.0446L51.0286 15.576L49.0286 21.096ZM61.6458 16.792C62.7658 16.792 63.7205 17.2027 64.5098 18.024C65.2992 18.8347 65.6938 19.8267 65.6938 21C65.6938 22.1733 65.2992 23.1707 64.5098 23.992C63.7205 24.8027 62.7658 25.208 61.6458 25.208C60.3232 25.208 59.3152 24.68 58.6218 23.624V28.2H57.2298V17H58.6218V18.376C59.3152 17.32 60.3232 16.792 61.6458 16.792ZM61.4698 23.864C62.2698 23.864 62.9418 23.592 63.4858 23.048C64.0298 22.4933 64.3018 21.8107 64.3018 21C64.3018 20.1893 64.0298 19.512 63.4858 18.968C62.9418 18.4133 62.2698 18.136 61.4698 18.136C60.6592 18.136 59.9818 18.4133 59.4378 18.968C58.8938 19.512 58.6218 20.1893 58.6218 21C58.6218 21.8107 58.8938 22.4933 59.4378 23.048C59.9818 23.592 60.6592 23.864 61.4698 23.864ZM71.7708 16.792C72.8908 16.792 73.8455 17.2027 74.6348 18.024C75.4242 18.8347 75.8188 19.8267 75.8188 21C75.8188 22.1733 75.4242 23.1707 74.6348 23.992C73.8455 24.8027 72.8908 25.208 71.7708 25.208C70.4482 25.208 69.4402 24.68 68.7468 23.624V28.2H67.3548V17H68.7468V18.376C69.4402 17.32 70.4482 16.792 71.7708 16.792ZM71.5948 23.864C72.3948 23.864 73.0668 23.592 73.6108 23.048C74.1548 22.4933 74.4268 21.8107 74.4268 21C74.4268 20.1893 74.1548 19.512 73.6108 18.968C73.0668 18.4133 72.3948 18.136 71.5948 18.136C70.7842 18.136 70.1068 18.4133 69.5628 18.968C69.0188 19.512 68.7468 20.1893 68.7468 21C68.7468 21.8107 69.0188 22.4933 69.5628 23.048C70.1068 23.592 70.7842 23.864 71.5948 23.864ZM77.4798 25V13.32H78.8718V25H77.4798ZM81.9715 21.64C82.1101 22.3547 82.4355 22.9093 82.9475 23.304C83.4701 23.6987 84.1101 23.896 84.8675 23.896C85.9235 23.896 86.6915 23.5067 87.1715 22.728L88.3555 23.4C87.5768 24.6053 86.4035 25.208 84.8355 25.208C83.5661 25.208 82.5315 24.8133 81.7315 24.024C80.9421 23.224 80.5475 22.216 80.5475 21C80.5475 19.7947 80.9368 18.792 81.7155 17.992C82.4941 17.192 83.5021 16.792 84.7395 16.792C85.9128 16.792 86.8675 17.208 87.6035 18.04C88.3501 18.8613 88.7235 19.8533 88.7235 21.016C88.7235 21.2187 88.7075 21.4267 88.6755 21.64H81.9715ZM84.7395 18.104C83.9928 18.104 83.3741 18.3173 82.8835 18.744C82.3928 19.16 82.0888 19.72 81.9715 20.424H87.3155C87.1981 19.6667 86.8995 19.0907 86.4195 18.696C85.9395 18.3013 85.3795 18.104 84.7395 18.104Z" fill="white"/>
</svg>
