<svg width="11" height="11" viewBox="0 0 11 11" fill="none" xmlns="http://www.w3.org/2000/svg">
<path d="M9.0002 5.37006C9.12361 6.2023 8.98145 7.05227 8.59395 7.79907C8.20645 8.54587 7.59334 9.15147 6.84182 9.52973C6.0903 9.90799 5.23864 10.0397 4.40798 9.90599C3.57732 9.77233 2.80996 9.38014 2.21503 8.78522C1.62011 8.1903 1.22793 7.42293 1.09426 6.59227C0.960598 5.76161 1.09226 4.90995 1.47052 4.15843C1.84878 3.40691 2.45438 2.7938 3.20118 2.4063C3.94798 2.0188 4.79795 1.87665 5.6302 2.00006C6.47912 2.12594 7.26505 2.52152 7.87189 3.12836C8.47873 3.73521 8.87431 4.52113 9.0002 5.37006Z" stroke="#141414" stroke-width="2" stroke-linecap="round" stroke-linejoin="round"/>
</svg>
