<svg width="23" height="22" viewBox="0 0 23 22" fill="none" xmlns="http://www.w3.org/2000/svg">
<path d="M20.9707 0.4375C21.2832 0.4375 21.5664 0.554688 21.8203 0.789062C22.0742 1.02344 22.2012 1.29688 22.2012 1.60938V20.8281C22.2012 21.1406 22.0742 21.4141 21.8203 21.6484C21.5664 21.8828 21.2832 22 20.9707 22H15.4629V13.6797H18.2754L18.6855 10.3984H15.4629V8.28906C15.4629 7.23438 16.0098 6.70703 17.1035 6.70703H18.8027V3.83594C18.2168 3.71875 17.377 3.66016 16.2832 3.66016C15.0332 3.66016 14.0273 4.04102 13.2656 4.80273C12.5039 5.56445 12.123 6.62891 12.123 7.99609V10.3984H9.31055V13.6797H12.123V22H1.75195C1.43945 22 1.16602 21.8828 0.931641 21.6484C0.697266 21.4141 0.580078 21.1406 0.580078 20.8281V1.60938C0.580078 1.29688 0.697266 1.02344 0.931641 0.789062C1.16602 0.554688 1.43945 0.4375 1.75195 0.4375H20.9707Z" fill="#141414"/>
</svg>
