<svg width="23" height="22" viewBox="0 0 23 22" fill="none" xmlns="http://www.w3.org/2000/svg">
<path d="M20.7007 0.4375C21.1304 0.4375 21.5112 0.583984 21.8433 0.876953C22.1753 1.16992 22.3413 1.53125 22.3413 1.96094V20.4766C22.3413 20.9062 22.1753 21.2676 21.8433 21.5605C21.5112 21.8535 21.1304 22 20.7007 22H2.30225C1.87256 22 1.50146 21.8535 1.18896 21.5605C0.876465 21.2676 0.720215 20.9062 0.720215 20.4766V1.96094C0.720215 1.53125 0.876465 1.16992 1.18896 0.876953C1.50146 0.583984 1.87256 0.4375 2.30225 0.4375H20.7007ZM7.10693 18.8359V8.52344H3.94287V18.8359H7.10693ZM5.5249 7.11719C6.03271 7.11719 6.47217 6.93164 6.84326 6.56055C7.21436 6.18945 7.3999 5.75 7.3999 5.24219C7.3999 4.73438 7.21436 4.29492 6.84326 3.92383C6.47217 3.55273 6.03271 3.36719 5.5249 3.36719C5.01709 3.36719 4.57764 3.55273 4.20654 3.92383C3.83545 4.29492 3.6499 4.73438 3.6499 5.24219C3.6499 5.78906 3.82568 6.23828 4.17725 6.58984C4.52881 6.94141 4.97803 7.11719 5.5249 7.11719ZM19.1187 18.8359V13.1523C19.1187 11.5898 18.855 10.3887 18.3276 9.54883C17.8003 8.70898 16.7944 8.28906 15.3101 8.28906C13.8257 8.28906 12.8101 8.83594 12.2632 9.92969H12.2046V8.52344H9.15771V18.8359H12.3218V13.7383C12.3218 11.9805 12.9663 11.1016 14.2554 11.1016C14.7632 11.1016 15.144 11.2676 15.3979 11.5996C15.6519 11.9316 15.7983 12.2441 15.8374 12.5371C15.8765 12.8301 15.896 13.25 15.896 13.7969V18.8359H19.1187Z" fill="#141414"/>
</svg>
